<svg id="Camada_1" data-name="Camada 1" xmlns="http://www.w3.org/2000/svg" viewBox="0 0 203.78 102.23"><defs><style>.cls-1{fill:none;}.cls-1,.cls-7,.cls-8{stroke:#ce6c0e;stroke-linecap:round;stroke-linejoin:round;stroke-width:2px;}.cls-2{font-size:19.68px;font-family:Poppins-Bold, Poppins;font-weight:700;letter-spacing:0.05em;}.cls-2,.cls-3,.cls-4,.cls-7{fill:#fff4c2;}.cls-3{font-size:8.17px;font-family:Poppins-Medium, Poppins;font-weight:500;letter-spacing:0.5em;}.cls-5{fill:#ce6c0e;}.cls-6,.cls-8{fill:#291b15;}</style></defs><title>logo</title><polyline class="cls-1" points="123.45 27.99 193.4 40.32 199.95 41.48 199.95 76.06 193.4 77.22 101.91 93.35 10.42 77.22 3.87 76.06 3.87 41.48 10.42 40.32 80.38 27.99"/><text class="cls-2" transform="translate(18.69 61.28)">Velvet Morning</text><text class="cls-3" transform="translate(78.19 74.93)">Coffee</text><circle class="cls-4" cx="152.71" cy="72.13" r="1.22"/><circle class="cls-4" cx="51.11" cy="72.13" r="1.22"/><polyline class="cls-1" points="123.45 20.11 193.4 32.45 193.4 85.09 101.91 101.23 10.42 85.09 10.42 32.45 80.38 20.11"/><polygon class="cls-5" points="111.15 37.08 92.68 37.08 87.99 9.23 115.83 9.23 111.15 37.08"/><rect class="cls-4" x="89.37" width="25.08" height="5.24"/><rect class="cls-4" x="85.79" y="3.86" width="32.25" height="7.99"/><path class="cls-6" d="M286.15,115.71a6.07,6.07,0,1,1-6.06-6.06A6.06,6.06,0,0,1,286.15,115.71Z" transform="translate(-178.17 -92.56)"/><rect class="cls-6" x="87.1" y="5.38" width="29.63" height="1.1"/><rect class="cls-4" x="92.68" y="38.74" width="18.47" height="1.79"/><path class="cls-7" d="M363.22,154.65s9-.4,8.32,8.52C371.54,163.17,364,163.45,363.22,154.65Z" transform="translate(-178.17 -92.56)"/><path class="cls-8" d="M381,141.16s-10.09-.45-9.35,9.57C371.61,150.73,380.1,151.05,381,141.16Z" transform="translate(-178.17 -92.56)"/><path class="cls-7" d="M196.91,154.65s-9-.4-8.32,8.52C188.59,163.17,196.15,163.45,196.91,154.65Z" transform="translate(-178.17 -92.56)"/><path class="cls-8" d="M179.17,141.16s10.1-.45,9.35,9.57C188.52,150.73,180,151.05,179.17,141.16Z" transform="translate(-178.17 -92.56)"/><line class="cls-1" x1="80.38" y1="20.11" x2="73.65" y2="13.38"/><line class="cls-1" x1="123.45" y1="20.11" x2="130.18" y2="13.38"/></svg>